<svg width="29" height="28" viewBox="0 0 29 28" fill="none" xmlns="http://www.w3.org/2000/svg">
<path fill-rule="evenodd" clip-rule="evenodd" d="M7.3776 12.9902C7.3776 9.16702 10.4766 6.06802 14.2998 6.06802C18.123 6.06802 21.222 9.16702 21.222 12.9902L21.2232 14.3808C21.2232 15.2027 21.4037 16.0144 21.7544 16.7579L22.2459 17.8022C22.9963 19.3983 21.8316 21.2326 20.0686 21.2326H8.53092C6.76689 21.2326 5.60335 19.3983 6.35369 17.8022L6.84521 16.7579C7.19485 16.0144 7.37647 15.2027 7.37647 14.3808L7.3776 12.9902Z" stroke="#1A1B2F" stroke-width="1.5" stroke-linecap="round" stroke-linejoin="round"/>
<path d="M11.0325 21.2336C11.0325 23.0373 12.4957 24.5006 14.2995 24.5006C16.1044 24.5006 17.5665 23.0373 17.5665 21.2336" stroke="#1A1B2F" stroke-width="1.5" stroke-linecap="round" stroke-linejoin="round"/>
<path d="M16.1718 6.31633V5.37188C16.1718 4.33775 15.333 3.5 14.2989 3.5C13.2647 3.5 12.4269 4.33775 12.4269 5.37188V6.31633" stroke="#1A1B2F" stroke-width="1.5" stroke-linecap="round" stroke-linejoin="round"/>
</svg>
